<?xml version="1.0" encoding="UTF-8"?>
<svg version="1.1" xmlns="http://www.w3.org/2000/svg" width="500" height="500">
<path d="M0 0 C3.63 0 7.26 0 11 0 C11 34.98 11 69.96 11 106 C7.37 106 3.74 106 0 106 C-0.495 102.04 -0.495 102.04 -1 98 C-1.70962891 98.70576172 -1.70962891 98.70576172 -2.43359375 99.42578125 C-8.66753354 105.29516316 -14.28651367 108.00263993 -22.875 108.4375 C-31.2037039 108.1017693 -37.87916618 105.50045128 -43.9375 99.75 C-50.70500879 92.34199484 -53.90694001 84.32071943 -54.03515625 74.234375 C-53.66694621 67.80417035 -52.13983549 62.60912984 -49 57 C-48.65066406 56.37222656 -48.30132812 55.74445313 -47.94140625 55.09765625 C-44.04180274 48.9311552 -38.24600911 45.29840364 -31.5625 42.625 C-22.81253458 41.08991835 -14.91891751 41.61882375 -7 46 C-5.02 47.98 -3.04 49.96 -1 52 C-0.67 34.84 -0.34 17.68 0 0 Z M-37.85546875 60.16015625 C-42.16980898 66.29861183 -43.51146198 71.4559358 -43 79 C-41.27490319 86.13130572 -37.82271671 89.96764397 -31.875 94.25 C-26.91782179 97.26741282 -22.66182261 97.52843678 -17 97 C-10.08472332 94.69490777 -5.74348839 91.7399204 -2.1875 85.375 C0.69054479 79.14380461 1.26636685 73.92689904 -0.8515625 67.359375 C-3.56028441 61.204864 -7.15480665 57.31390669 -13 54 C-22.21597162 50.92800946 -31.44618059 52.69839551 -37.85546875 60.16015625 Z " fill="#FEFEFE" transform="translate(344,191)"/>
<path d="M0 0 C6.00788268 4.71285019 11.02054451 11.60518346 14.0078125 18.62890625 C14.0078125 19.61890625 14.0078125 20.60890625 14.0078125 21.62890625 C10.17714004 22.26265721 6.81921202 22.45791092 3.0078125 21.62890625 C0.5554121 19.37723613 -1.13716047 16.97508811 -3.03125 14.2421875 C-8.19633613 7.35883566 -16.44654122 3.73164283 -24.703125 2.08984375 C-35.77959305 0.60716693 -45.90987819 3.76705167 -54.76953125 10.5234375 C-62.94685606 18.26962041 -66.99445616 28.60281312 -67.3046875 39.75390625 C-66.86145149 51.44425594 -62.55776165 61.50987862 -53.9921875 69.62890625 C-46.91093533 75.36877585 -37.55865255 78.36496389 -28.4375 77.97265625 C-18.96568682 76.64115536 -10.73244599 73.54336625 -3.9921875 66.62890625 C-2.87070618 64.99482209 -1.76638983 63.34882275 -0.6796875 61.69140625 C1.51096267 58.62864891 2.34909594 57.75003045 6.109375 57.05859375 C9.12700517 57.0656608 12.01816734 57.23126872 15.0078125 57.62890625 C8.7040972 71.48322559 0.88703856 81.47819315 -13.7421875 87.00390625 C-26.67457127 91.23041156 -39.60622663 90.49161142 -52.1171875 85.00390625 C-62.75009119 79.19007325 -72.11865803 68.76408327 -76.2109375 57.3515625 C-80.69705592 41.7174398 -79.45800818 27.34931949 -71.57421875 13.05859375 C-64.29057172 1.53754349 -54.16877724 -6.24335944 -40.7421875 -9.30859375 C-25.60379322 -11.97228935 -12.66761679 -8.71830097 0 0 Z " fill="#FDFDFD" transform="translate(107.9921875,209.37109375)"/>
<path d="M0 0 C2.53930763 1.86579951 4.71482813 3.81418343 7 6 C7.33 3.03 7.66 0.06 8 -3 C11.3 -3 14.6 -3 18 -3 C18 17.79 18 38.58 18 60 C14.7 60 11.4 60 8 60 C7.05776494 51.99824998 6.95571733 44.25512281 7.21484375 36.2109375 C7.3526635 27.31529891 6.02119813 19.02080394 -0.34375 12.40625 C-5.19265933 8.28925151 -10.35345429 7.42653468 -16.51171875 7.66015625 C-22.73188628 8.50969247 -26.62448019 11.14451957 -30.4375 16.0625 C-34.63942503 22.02763062 -34.64077314 27.88832065 -34 35 C-32.03712164 41.86446603 -27.81316747 45.77565231 -21.75 49.3125 C-13.50665311 51.37333672 -7.42337497 49.83141934 0 46 C0 49.96 0 53.92 0 58 C-7.21791143 61.86074333 -14.28264802 63.28098825 -22.37109375 61.46875 C-31.15511924 58.74318391 -37.55796873 53.84598962 -42.23046875 45.91015625 C-46.55898601 37.5187708 -47.63112121 28.33855394 -45.24609375 19.0703125 C-41.46504795 9.31373157 -35.89545069 1.97310793 -26.25 -2.375 C-17.08036288 -5.68162672 -8.47126441 -4.73816484 0 0 Z " fill="#FDFDFD" transform="translate(417,237)"/>
<path d="M0 0 C2.53930763 1.86579951 4.71482813 3.81418343 7 6 C7.33 3.03 7.66 0.06 8 -3 C11.3 -3 14.6 -3 18 -3 C18 17.79 18 38.58 18 60 C14.7 60 11.4 60 8 60 C7.97494385 59.30551758 7.9498877 58.61103516 7.92407227 57.89550781 C7.80642049 54.68022624 7.68447795 51.46512025 7.5625 48.25 C7.52318359 47.15816406 7.48386719 46.06632812 7.44335938 44.94140625 C7.7039241 28.04855658 7.7039241 28.04855658 0.578125 13.47265625 C-4.75455349 8.73097048 -9.46843734 7.52156994 -16.4375 7.6875 C-21.96702854 8.36183275 -26.19981629 10.79086415 -29.875 14.9375 C-34.36775055 21.41234637 -34.80296962 27.27141745 -34 35 C-32.01886286 41.86644121 -27.82408524 45.76928361 -21.75 49.3125 C-14.72470963 51.06882259 -8.88630979 50.57024679 -2.59375 46.97265625 C-2.0678125 46.65167969 -1.541875 46.33070313 -1 46 C-0.34 45.67 0.32 45.34 1 45 C1 48.96 1 52.92 1 57 C-6.54297567 61.58494599 -13.54291037 63.44672848 -22.37109375 61.46875 C-31.64030092 58.5926385 -38.69971398 53.12633739 -43.33203125 44.52734375 C-47.03579232 35.64093467 -47.70751078 25.74039712 -44.375 16.625 C-39.84359549 6.99379182 -33.70612858 1.20727889 -24.125 -3.375 C-15.41781369 -5.11643726 -7.80119041 -4.36337769 0 0 Z " fill="#FDFDFD" transform="translate(256,237)"/>
<path d="M0 0 C3.3 0 6.6 0 10 0 C10 34.98 10 69.96 10 106 C6.7 106 3.4 106 0 106 C0 71.02 0 36.04 0 0 Z " fill="#FEFEFE" transform="translate(456,191)"/>
<path d="M0 0 C-2.59918765 9.91795288 -2.59918765 9.91795288 -5.87109375 12.4453125 C-7.24386556 13.06293007 -8.63415667 13.64304448 -10.0390625 14.18359375 C-14.80043852 16.16591962 -17.71935466 20.55274159 -20 25 C-21.68128752 29.58532961 -21.55448785 34.43438724 -19.9375 39 C-17.99902109 45.20313253 -20.37546879 50.40860743 -23 56 C-29.0620061 51.06058763 -32.09102035 43.73645594 -33 36.125 C-33.3961222 26.4819002 -31.30673384 18.33680058 -24.953125 10.96875 C-17.78885741 3.74716827 -10.32988565 -0.64561785 0 0 Z " fill="#FDFDFD" transform="translate(165,233)"/>
<path d="M0 0 C7.7577296 9.09526919 8.87310805 17.32059816 8 29 C6.12368554 37.64060733 0.82489894 44.41554493 -6.203125 49.63671875 C-11.42434802 52.82239503 -15.92361568 53.71064837 -22 54 C-21.33775608 49.62919013 -20.09455171 45.90019973 -18 42 C-16.01833966 40.9641321 -14.01526169 39.96887581 -12 39 C-7.79195887 34.92964529 -4.1619151 31.3430706 -3.8671875 25.2578125 C-3.86976563 24.22398437 -3.87234375 23.19015625 -3.875 22.125 C-3.87242187 21.09632813 -3.86984375 20.06765625 -3.8671875 19.0078125 C-3.90009087 16.04950442 -3.90009087 16.04950442 -4.625 13.4453125 C-5.10386277 10.32272821 -4.37365599 8.6262145 -3.125 5.75 C-2.75632813 4.87859375 -2.38765625 4.0071875 -2.0078125 3.109375 C-1 1 -1 1 0 0 Z " fill="#FDFDFD" transform="translate(190,244)"/>
<path d="M0 0 C1.299375 0.7115625 1.299375 0.7115625 2.625 1.4375 C5.85387374 2.93234895 8.49033826 3.58218313 12 4 C11.60446947 5.6510403 11.18286103 7.2958515 10.75 8.9375 C10.40195313 10.31228516 10.40195313 10.31228516 10.046875 11.71484375 C9 14 9 14 7.1875 14.9375 C4.40637173 15.01696081 2.74448327 14.27305806 0.25 13.0625 C-0.54921875 12.68222656 -1.3484375 12.30195313 -2.171875 11.91015625 C-2.77515625 11.60980469 -3.3784375 11.30945313 -4 11 C-3.48964169 6.6109185 -2.47785723 3.66291938 0 0 Z " fill="#FEFEFE" transform="translate(152,283)"/>
<path d="M0 0 C4.77576339 0.4682121 8.04476345 1.24331998 12 4 C11.32829194 7.8063457 10.27253436 11.35206816 9 15 C8.34 14.731875 7.68 14.46375 7 14.1875 C3.35060933 12.74294953 -0.32245433 11.37128822 -4 10 C-2.68 6.7 -1.36 3.4 0 0 Z " fill="#FDFDFD" transform="translate(172,234)"/>
</svg>
